<?xml version="1.0" encoding="UTF-8" standalone="no"?>
<!-- Created with Inkscape (http://www.inkscape.org/) -->

<svg
   width="1300"
   height="800"
   viewBox="0 0 343.95832 211.66667"
   version="1.1"
   id="svg1"
   inkscape:version="1.4.2 (f4327f4, 2025-05-13)"
   sodipodi:docname="source.svg"
   inkscape:export-filename="texture.png"
   inkscape:export-xdpi="96"
   inkscape:export-ydpi="96"
   xmlns:inkscape="http://www.inkscape.org/namespaces/inkscape"
   xmlns:sodipodi="http://sodipodi.sourceforge.net/DTD/sodipodi-0.dtd"
   xmlns="http://www.w3.org/2000/svg"
   xmlns:svg="http://www.w3.org/2000/svg">
  <sodipodi:namedview
     id="namedview1"
     pagecolor="#505050"
     bordercolor="#eeeeee"
     borderopacity="1"
     inkscape:showpageshadow="0"
     inkscape:pageopacity="0"
     inkscape:pagecheckerboard="0"
     inkscape:deskcolor="#505050"
     inkscape:document-units="mm"
     inkscape:zoom="0.32195348"
     inkscape:cx="565.29906"
     inkscape:cy="625.86682"
     inkscape:window-width="1366"
     inkscape:window-height="697"
     inkscape:window-x="-8"
     inkscape:window-y="-8"
     inkscape:window-maximized="1"
     inkscape:current-layer="layer1"
     showguides="true" />
  <defs
     id="defs1" />
  <g
     inkscape:label="Layer 1"
     inkscape:groupmode="layer"
     id="layer1">
    <rect
       style="fill:#1a1a1a;fill-opacity:0.5;stroke:none;stroke-width:1.5;stroke-linecap:round;stroke-linejoin:round;stroke-dasharray:none"
       id="rect1"
       width="45.508331"
       height="45.508331"
       x="6.75"
       y="-52.258331"
       ry="4.5212693"
       transform="scale(1,-1)" />
    <rect
       style="fill:#1a1a1a;fill-opacity:0.5;stroke:none;stroke-width:1.5;stroke-linecap:round;stroke-linejoin:round;stroke-dasharray:none"
       id="rect1-8"
       width="45.508331"
       height="45.508331"
       x="56.491669"
       y="-52.258331"
       ry="4.5212693"
       transform="scale(1,-1)" />
    <rect
       style="fill:#1a1a1a;fill-opacity:0.5;stroke:none;stroke-width:1.5;stroke-linecap:round;stroke-linejoin:round;stroke-dasharray:none"
       id="rect1-1"
       width="45.508331"
       height="45.508331"
       x="107.29166"
       y="-52.258331"
       ry="4.5212693"
       transform="scale(1,-1)" />
    <rect
       style="fill:#1a1a1a;fill-opacity:0.5;stroke:none;stroke-width:1.5;stroke-linecap:round;stroke-linejoin:round;stroke-dasharray:none"
       id="rect1-8-7"
       width="45.508331"
       height="45.508331"
       x="157.03333"
       y="-52.258331"
       ry="4.5212693"
       transform="scale(1,-1)" />
    <rect
       style="fill:#ff860e;fill-opacity:1;stroke:none;stroke-width:2;stroke-linecap:round;stroke-linejoin:round;stroke-dasharray:none;stroke-opacity:1"
       id="rect1-16"
       width="45.508331"
       height="45.508331"
       x="6.75"
       y="-100.25833"
       ry="4.5212693"
       transform="scale(1,-1)" />
    <rect
       style="fill:#ff860e;fill-opacity:1;stroke:none;stroke-width:2;stroke-linecap:round;stroke-linejoin:round;stroke-dasharray:none;stroke-opacity:1"
       id="rect1-8-76"
       width="45.508331"
       height="45.508331"
       x="56.491665"
       y="-100.25833"
       ry="4.5212693"
       transform="scale(1,-1)" />
    <rect
       style="fill:#ff860e;fill-opacity:1;stroke:none;stroke-width:2;stroke-linecap:round;stroke-linejoin:round;stroke-dasharray:none;stroke-opacity:1"
       id="rect1-1-9"
       width="45.508331"
       height="45.508331"
       x="107.29166"
       y="-100.25833"
       ry="4.5212693"
       transform="scale(1,-1)" />
    <rect
       style="fill:#ff860e;fill-opacity:1;stroke:none;stroke-width:2;stroke-linecap:round;stroke-linejoin:round;stroke-dasharray:none;stroke-opacity:1"
       id="rect1-8-7-9"
       width="45.508331"
       height="45.508331"
       x="157.03333"
       y="-100.25833"
       ry="4.5212693"
       transform="scale(1,-1)" />
    <rect
       style="fill:#1a1a1a;fill-opacity:0.5;stroke:none;stroke-width:1.5;stroke-linecap:round;stroke-linejoin:round;stroke-dasharray:none"
       id="rect1-1-4-8"
       width="30.182337"
       height="45.508331"
       x="206.29895"
       y="-52.079166"
       ry="4.5212693"
       transform="scale(1,-1)" />
    <rect
       style="fill:#ff860e;fill-opacity:1;stroke:none;stroke-width:2;stroke-linecap:round;stroke-linejoin:round;stroke-dasharray:none;stroke-opacity:1"
       id="rect1-1-4-8-8"
       width="30.182337"
       height="45.508331"
       x="206.29895"
       y="-99.96875"
       ry="4.5212693"
       transform="scale(1,-1)" />
    <rect
       style="fill:#1a1a1a;fill-opacity:0.5;stroke:none;stroke-width:1.5;stroke-linecap:round;stroke-linejoin:round;stroke-dasharray:none"
       id="rect1-1-4-8-1"
       width="11.280278"
       height="35.754112"
       x="157.03333"
       y="-138.44562"
       ry="3.5521841"
       transform="scale(1,-1)" />
    <rect
       style="fill:#ff860e;fill-opacity:1;stroke:none;stroke-width:2;stroke-linecap:round;stroke-linejoin:round;stroke-dasharray:none;stroke-opacity:1"
       id="rect1-1-4-8-1-2"
       width="11.280278"
       height="35.754112"
       x="157.03333"
       y="-176.79475"
       ry="3.5521841"
       transform="scale(1,-1)" />
    <rect
       style="fill:#1a1a1a;fill-opacity:0.5;stroke:none;stroke-width:1.5;stroke-linecap:round;stroke-linejoin:round;stroke-dasharray:none"
       id="rect1-1-4-8-1-2-4-6"
       width="88.837608"
       height="100.51984"
       x="244.84749"
       y="-107.09067"
       ry="9.9866819"
       transform="scale(1,-1)" />
    <rect
       style="fill:#1a1a1a;fill-opacity:0.5;stroke:none;stroke-width:1.5;stroke-linecap:round;stroke-linejoin:round;stroke-dasharray:none"
       id="rect1-8-7-1"
       width="45.508331"
       height="45.508331"
       x="7.06287"
       y="-149.25833"
       ry="4.5212693"
       transform="scale(1,-1)" />
    <text
       xml:space="preserve"
       style="font-style:normal;font-variant:normal;font-weight:bold;font-stretch:normal;font-size:19.7556px;line-height:0.9;font-family:Figtree;-inkscape-font-specification:'Figtree Bold';text-align:center;letter-spacing:0px;writing-mode:lr-tb;direction:ltr;text-anchor:middle;fill:#ffffff;stroke-width:3.42199;stroke-linecap:round;stroke-linejoin:round"
       x="29.817036"
       y="133.41861"
       id="text1-2-6-1"><tspan
         sodipodi:role="line"
         id="tspan1-4-1-5"
         style="font-style:normal;font-variant:normal;font-weight:bold;font-stretch:normal;font-size:19.7556px;font-family:Figtree;-inkscape-font-specification:'Figtree Bold';text-align:center;text-anchor:middle;fill:#ffffff;stroke-width:3.42199"
         x="29.817036"
         y="133.41861">Z</tspan></text>
    <rect
       style="fill:#1a1a1a;fill-opacity:0.5;stroke:none;stroke-width:1.5;stroke-linecap:round;stroke-linejoin:round;stroke-dasharray:none"
       id="rect1-3"
       width="45.508331"
       height="45.508331"
       x="56.178814"
       y="-149.25833"
       ry="4.5212693"
       transform="scale(1,-1)" />
    <text
       xml:space="preserve"
       style="font-style:normal;font-variant:normal;font-weight:bold;font-stretch:normal;font-size:19.7556px;line-height:0.9;font-family:Figtree;-inkscape-font-specification:'Figtree Bold';text-align:center;letter-spacing:0px;writing-mode:lr-tb;direction:ltr;text-anchor:middle;fill:#ffffff;stroke-width:3.42199;stroke-linecap:round;stroke-linejoin:round"
       x="78.932999"
       y="133.41861"
       id="text1-3"><tspan
         sodipodi:role="line"
         id="tspan1-41"
         style="font-style:normal;font-variant:normal;font-weight:bold;font-stretch:normal;font-size:19.7556px;font-family:Figtree;-inkscape-font-specification:'Figtree Bold';text-align:center;text-anchor:middle;fill:#ffffff;stroke-width:3.42199"
         x="78.932999"
         y="133.41861">X</tspan></text>
    <rect
       style="fill:#1a1a1a;fill-opacity:0.5;stroke:none;stroke-width:1.5;stroke-linecap:round;stroke-linejoin:round;stroke-dasharray:none"
       id="rect1-8-1"
       width="45.508331"
       height="45.508331"
       x="105.92049"
       y="-149.25833"
       ry="4.5212693"
       transform="scale(1,-1)" />
    <text
       xml:space="preserve"
       style="font-style:normal;font-variant:normal;font-weight:bold;font-stretch:normal;font-size:19.7556px;line-height:0.9;font-family:Figtree;-inkscape-font-specification:'Figtree Bold';text-align:center;letter-spacing:0px;writing-mode:lr-tb;direction:ltr;text-anchor:middle;fill:#ffffff;stroke-width:3.42199;stroke-linecap:round;stroke-linejoin:round"
       x="128.57587"
       y="133.41864"
       id="text1-2-3"><tspan
         sodipodi:role="line"
         id="tspan1-4-87"
         style="font-style:normal;font-variant:normal;font-weight:bold;font-stretch:normal;font-size:19.7556px;font-family:Figtree;-inkscape-font-specification:'Figtree Bold';text-align:center;text-anchor:middle;fill:#ffffff;stroke-width:3.42199"
         x="128.57587"
         y="133.41864">C</tspan></text>
    <rect
       style="fill:#ff860e;fill-opacity:1;stroke:none;stroke-width:2;stroke-linecap:round;stroke-linejoin:round;stroke-dasharray:none;stroke-opacity:1"
       id="rect1-8-7-9-7"
       width="45.508331"
       height="45.508331"
       x="7.0628548"
       y="-197.25833"
       ry="4.5212693"
       transform="scale(1,-1)" />
    <text
       xml:space="preserve"
       style="font-style:normal;font-variant:normal;font-weight:bold;font-stretch:normal;font-size:19.7556px;line-height:0.9;font-family:Figtree;-inkscape-font-specification:'Figtree Bold';text-align:center;letter-spacing:0px;writing-mode:lr-tb;direction:ltr;text-anchor:middle;fill:#ffffff;stroke-width:3.42199;stroke-linecap:round;stroke-linejoin:round"
       x="29.81702"
       y="181.41861"
       id="text1-2-6-5-6"><tspan
         sodipodi:role="line"
         id="tspan1-4-1-4-1"
         style="font-style:normal;font-variant:normal;font-weight:bold;font-stretch:normal;font-size:19.7556px;font-family:Figtree;-inkscape-font-specification:'Figtree Bold';text-align:center;text-anchor:middle;fill:#ffffff;stroke-width:3.42199"
         x="29.81702"
         y="181.41861">Z</tspan></text>
    <rect
       style="fill:#ff860e;fill-opacity:1;stroke:none;stroke-width:2;stroke-linecap:round;stroke-linejoin:round;stroke-dasharray:none;stroke-opacity:1"
       id="rect1-16-8"
       width="45.508331"
       height="45.508331"
       x="56.178814"
       y="-197.25833"
       ry="4.5212693"
       transform="scale(1,-1)" />
    <text
       xml:space="preserve"
       style="font-style:normal;font-variant:normal;font-weight:bold;font-stretch:normal;font-size:19.7556px;line-height:0.9;font-family:Figtree;-inkscape-font-specification:'Figtree Bold';text-align:center;letter-spacing:0px;writing-mode:lr-tb;direction:ltr;text-anchor:middle;fill:#ffffff;stroke-width:3.42199;stroke-linecap:round;stroke-linejoin:round"
       x="78.932999"
       y="181.41861"
       id="text1-8-6"><tspan
         sodipodi:role="line"
         id="tspan1-5-5"
         style="font-style:normal;font-variant:normal;font-weight:bold;font-stretch:normal;font-size:19.7556px;font-family:Figtree;-inkscape-font-specification:'Figtree Bold';text-align:center;text-anchor:middle;fill:#ffffff;stroke-width:3.42199"
         x="78.932999"
         y="181.41861">X</tspan></text>
    <rect
       style="fill:#ff860e;fill-opacity:1;stroke:none;stroke-width:2;stroke-linecap:round;stroke-linejoin:round;stroke-dasharray:none;stroke-opacity:1"
       id="rect1-8-76-0"
       width="45.508331"
       height="45.508331"
       x="105.92048"
       y="-197.25833"
       ry="4.5212693"
       transform="scale(1,-1)" />
    <text
       xml:space="preserve"
       style="font-style:normal;font-variant:normal;font-weight:bold;font-stretch:normal;font-size:19.7556px;line-height:0.9;font-family:Figtree;-inkscape-font-specification:'Figtree Bold';text-align:center;letter-spacing:0px;writing-mode:lr-tb;direction:ltr;text-anchor:middle;fill:#ffffff;stroke-width:3.42199;stroke-linecap:round;stroke-linejoin:round"
       x="128.57587"
       y="181.41864"
       id="text1-2-1-2"><tspan
         sodipodi:role="line"
         id="tspan1-4-8-8"
         style="font-style:normal;font-variant:normal;font-weight:bold;font-stretch:normal;font-size:19.7556px;font-family:Figtree;-inkscape-font-specification:'Figtree Bold';text-align:center;text-anchor:middle;fill:#ffffff;stroke-width:3.42199"
         x="128.57587"
         y="181.41864">C</tspan></text>
    <path
       id="path1"
       style="baseline-shift:baseline;display:inline;overflow:visible;opacity:1;vector-effect:none;fill:#ffffff;stroke-linecap:round;stroke-linejoin:round;paint-order:stroke markers fill;enable-background:accumulate;stop-color:#000000;stop-opacity:1"
       d="m 37.161505,30.226565 a 1.25,1.25 0 0 0 -0.321944,-0.901237 l -6.407878,-7.091557 a 1.25,1.25 0 0 0 -0.03462,-0.03411 1.25,1.25 0 0 0 -0.02015,-0.02015 1.25,1.25 0 0 0 -0.03514,-0.03566 1.25,1.25 0 0 0 -0.01292,-0.01033 1.25,1.25 0 0 0 -0.04393,-0.03462 1.25,1.25 0 0 0 -0.03824,-0.02946 1.25,1.25 0 0 0 -0.04703,-0.03514 1.25,1.25 0 0 0 -0.06304,-0.03824 1.25,1.25 0 0 0 -0.01085,-0.0067 1.25,1.25 0 0 0 -5.16e-4,0 1.25,1.25 0 0 0 -0.06925,-0.03824 1.25,1.25 0 0 0 -0.06718,-0.02894 1.25,1.25 0 0 0 -0.0083,-0.0036 1.25,1.25 0 0 0 -0.0031,-0.001 1.25,1.25 0 0 0 -0.0708,-0.02842 1.25,1.25 0 0 0 -0.0708,-0.02015 1.25,1.25 0 0 0 -0.01447,-0.0036 1.25,1.25 0 0 0 -10e-4,-5.16e-4 1.25,1.25 0 0 0 -0.07131,-0.01809 1.25,1.25 0 0 0 -0.06873,-0.0098 1.25,1.25 0 0 0 -0.02429,-0.0031 1.25,1.25 0 0 0 -0.06925,-0.0088 1.25,1.25 0 0 0 -0.07286,-0.001 1.25,1.25 0 0 0 -0.0098,-5.16e-4 1.25,1.25 0 0 0 -0.0093,5.16e-4 1.25,1.25 0 0 0 -0.0739,0.001 1.25,1.25 0 0 0 -0.0708,0.0088 1.25,1.25 0 0 0 -0.0047,5.17e-4 1.25,1.25 0 0 0 -0.01447,0.0021 1.25,1.25 0 0 0 -0.07235,0.01034 1.25,1.25 0 0 0 -0.06976,0.01757 1.25,1.25 0 0 0 -0.0052,0.0015 1.25,1.25 0 0 0 -0.0078,0.0021 1.25,1.25 0 0 0 -0.07648,0.0217 1.25,1.25 0 0 0 -0.0677,0.02687 1.25,1.25 0 0 0 -0.0057,0.0026 1.25,1.25 0 0 0 -0.07493,0.03204 1.25,1.25 0 0 0 -0.06873,0.03824 1.25,1.25 0 0 0 -0.0031,0.0021 1.25,1.25 0 0 0 -0.07131,0.04289 1.25,1.25 0 0 0 -0.05529,0.04134 1.25,1.25 0 0 0 -0.0021,0.0015 1.25,1.25 0 0 0 -0.01809,0.01395 1.25,1.25 0 0 0 -0.05374,0.04237 1.25,1.25 0 0 0 -0.01292,0.01033 1.25,1.25 0 0 0 -0.04547,0.04599 1.25,1.25 0 0 0 -0.04444,0.04392 1.25,1.25 0 0 0 -0.0036,0.0036 l -6.40426,7.087939 a 1.25,1.25 0 0 0 0.0894,1.765784 1.25,1.25 0 0 0 1.765784,-0.08992 L 28.2539,26.31991 v 9.615434 a 1.25,1.25 0 0 0 1.250053,1.249536 1.25,1.25 0 0 0 1.250053,-1.249536 v -9.615951 l 4.2323,4.681885 a 1.25,1.25 0 0 0 1.765267,0.08992 1.25,1.25 0 0 0 0.409794,-0.864547 z" />
    <path
       id="path1-8"
       style="baseline-shift:baseline;display:inline;overflow:visible;vector-effect:none;fill:#ffffff;stroke-linecap:round;stroke-linejoin:round;paint-order:stroke markers fill;enable-background:accumulate;stop-color:#000000"
       d="m 37.161505,78.226496 a 1.25,1.25 0 0 0 -0.321944,-0.901237 l -6.407878,-7.091557 a 1.25,1.25 0 0 0 -0.03462,-0.03411 1.25,1.25 0 0 0 -0.02015,-0.02015 1.25,1.25 0 0 0 -0.03514,-0.03566 1.25,1.25 0 0 0 -0.01292,-0.01033 1.25,1.25 0 0 0 -0.04393,-0.03462 1.25,1.25 0 0 0 -0.03824,-0.02946 1.25,1.25 0 0 0 -0.04703,-0.03514 1.25,1.25 0 0 0 -0.06304,-0.03824 1.25,1.25 0 0 0 -0.01085,-0.0067 1.25,1.25 0 0 0 -5.16e-4,0 1.25,1.25 0 0 0 -0.06925,-0.03824 1.25,1.25 0 0 0 -0.06718,-0.02894 1.25,1.25 0 0 0 -0.0083,-0.0036 1.25,1.25 0 0 0 -0.0031,-0.001 1.25,1.25 0 0 0 -0.0708,-0.02842 1.25,1.25 0 0 0 -0.0708,-0.02015 1.25,1.25 0 0 0 -0.01447,-0.0036 1.25,1.25 0 0 0 -10e-4,-5.16e-4 1.25,1.25 0 0 0 -0.07131,-0.01809 1.25,1.25 0 0 0 -0.06873,-0.0098 1.25,1.25 0 0 0 -0.02429,-0.0031 1.25,1.25 0 0 0 -0.06925,-0.0088 1.25,1.25 0 0 0 -0.07286,-10e-4 1.25,1.25 0 0 0 -0.0098,-5.16e-4 1.25,1.25 0 0 0 -0.0093,5.16e-4 1.25,1.25 0 0 0 -0.0739,10e-4 1.25,1.25 0 0 0 -0.0708,0.0088 1.25,1.25 0 0 0 -0.0047,5.17e-4 1.25,1.25 0 0 0 -0.01447,0.0021 1.25,1.25 0 0 0 -0.07235,0.01034 1.25,1.25 0 0 0 -0.06976,0.01757 1.25,1.25 0 0 0 -0.0052,0.0015 1.25,1.25 0 0 0 -0.0078,0.0021 1.25,1.25 0 0 0 -0.07648,0.0217 1.25,1.25 0 0 0 -0.0677,0.02687 1.25,1.25 0 0 0 -0.0057,0.0026 1.25,1.25 0 0 0 -0.07493,0.03204 1.25,1.25 0 0 0 -0.06873,0.03824 1.25,1.25 0 0 0 -0.0031,0.0021 1.25,1.25 0 0 0 -0.07131,0.04289 1.25,1.25 0 0 0 -0.05529,0.04134 1.25,1.25 0 0 0 -0.0021,0.0015 1.25,1.25 0 0 0 -0.01809,0.01395 1.25,1.25 0 0 0 -0.05374,0.04237 1.25,1.25 0 0 0 -0.01292,0.01033 1.25,1.25 0 0 0 -0.04547,0.04599 1.25,1.25 0 0 0 -0.04444,0.04392 1.25,1.25 0 0 0 -0.0036,0.0036 l -6.40426,7.087939 a 1.25,1.25 0 0 0 0.0894,1.765784 1.25,1.25 0 0 0 1.765784,-0.08992 L 28.2539,74.319841 v 9.615434 a 1.25,1.25 0 0 0 1.250053,1.249536 1.25,1.25 0 0 0 1.250053,-1.249536 v -9.615951 l 4.2323,4.681885 a 1.25,1.25 0 0 0 1.765267,0.08992 1.25,1.25 0 0 0 0.409794,-0.864547 z" />
    <path
       id="path1-7"
       style="baseline-shift:baseline;display:inline;overflow:visible;vector-effect:none;fill:#ffffff;stroke-linecap:round;stroke-linejoin:round;paint-order:stroke markers fill;enable-background:accumulate;stop-color:#000000"
       d="m 79.968165,21.846826 a 1.25,1.25 0 0 0 -0.901237,0.321944 l -7.091557,6.407878 a 1.25,1.25 0 0 0 -0.03411,0.03462 1.25,1.25 0 0 0 -0.02015,0.02015 1.25,1.25 0 0 0 -0.03566,0.03514 1.25,1.25 0 0 0 -0.01033,0.01292 1.25,1.25 0 0 0 -0.03462,0.04393 1.25,1.25 0 0 0 -0.02946,0.03824 1.25,1.25 0 0 0 -0.03514,0.04703 1.25,1.25 0 0 0 -0.03824,0.06304 1.25,1.25 0 0 0 -0.0067,0.01085 1.25,1.25 0 0 0 0,5.16e-4 1.25,1.25 0 0 0 -0.03824,0.06925 1.25,1.25 0 0 0 -0.02894,0.06718 1.25,1.25 0 0 0 -0.0036,0.0083 1.25,1.25 0 0 0 -10e-4,0.0031 1.25,1.25 0 0 0 -0.02842,0.0708 1.25,1.25 0 0 0 -0.02015,0.0708 1.25,1.25 0 0 0 -0.0036,0.01447 1.25,1.25 0 0 0 -5.16e-4,0.001 1.25,1.25 0 0 0 -0.01809,0.07131 1.25,1.25 0 0 0 -0.0098,0.06873 1.25,1.25 0 0 0 -0.0031,0.02429 1.25,1.25 0 0 0 -0.0088,0.06925 1.25,1.25 0 0 0 -0.001,0.07286 1.25,1.25 0 0 0 -5.16e-4,0.0098 1.25,1.25 0 0 0 5.16e-4,0.0093 1.25,1.25 0 0 0 0.001,0.0739 1.25,1.25 0 0 0 0.0088,0.0708 1.25,1.25 0 0 0 5.17e-4,0.0047 1.25,1.25 0 0 0 0.0021,0.01447 1.25,1.25 0 0 0 0.01034,0.07235 1.25,1.25 0 0 0 0.01757,0.06976 1.25,1.25 0 0 0 0.0015,0.0052 1.25,1.25 0 0 0 0.0021,0.0078 1.25,1.25 0 0 0 0.0217,0.07648 1.25,1.25 0 0 0 0.02687,0.0677 1.25,1.25 0 0 0 0.0026,0.0057 1.25,1.25 0 0 0 0.03204,0.07493 1.25,1.25 0 0 0 0.03824,0.06873 1.25,1.25 0 0 0 0.0021,0.0031 1.25,1.25 0 0 0 0.04289,0.07131 1.25,1.25 0 0 0 0.04134,0.05529 1.25,1.25 0 0 0 0.0015,0.0021 1.25,1.25 0 0 0 0.01395,0.01809 1.25,1.25 0 0 0 0.04237,0.05374 1.25,1.25 0 0 0 0.01033,0.01292 1.25,1.25 0 0 0 0.04599,0.04547 1.25,1.25 0 0 0 0.04392,0.04444 1.25,1.25 0 0 0 0.0036,0.0036 l 7.087939,6.40426 a 1.25,1.25 0 0 0 1.765784,-0.0894 1.25,1.25 0 0 0 -0.08992,-1.765784 L 76.06151,30.754431 h 9.615434 a 1.25,1.25 0 0 0 1.249536,-1.250053 1.25,1.25 0 0 0 -1.249536,-1.250053 h -9.615951 l 4.681885,-4.2323 a 1.25,1.25 0 0 0 0.08992,-1.765267 1.25,1.25 0 0 0 -0.864547,-0.409794 z" />
    <path
       id="path1-7-5"
       style="baseline-shift:baseline;display:inline;overflow:visible;vector-effect:none;fill:#ffffff;stroke-linecap:round;stroke-linejoin:round;paint-order:stroke markers fill;enable-background:accumulate;stop-color:#000000"
       d="m 79.968161,69.846826 a 1.25,1.25 0 0 0 -0.901237,0.321944 l -7.091557,6.407878 a 1.25,1.25 0 0 0 -0.03411,0.03462 1.25,1.25 0 0 0 -0.02015,0.02015 1.25,1.25 0 0 0 -0.03566,0.03514 1.25,1.25 0 0 0 -0.01033,0.01292 1.25,1.25 0 0 0 -0.03462,0.04393 1.25,1.25 0 0 0 -0.02946,0.03824 1.25,1.25 0 0 0 -0.03514,0.04703 1.25,1.25 0 0 0 -0.03824,0.06304 1.25,1.25 0 0 0 -0.0067,0.01085 1.25,1.25 0 0 0 0,5.16e-4 1.25,1.25 0 0 0 -0.03824,0.06925 1.25,1.25 0 0 0 -0.02894,0.06718 1.25,1.25 0 0 0 -0.0036,0.0083 1.25,1.25 0 0 0 -0.001,0.0031 1.25,1.25 0 0 0 -0.02842,0.0708 1.25,1.25 0 0 0 -0.02015,0.0708 1.25,1.25 0 0 0 -0.0036,0.01447 1.25,1.25 0 0 0 -5.16e-4,0.001 1.25,1.25 0 0 0 -0.01809,0.07131 1.25,1.25 0 0 0 -0.0098,0.06873 1.25,1.25 0 0 0 -0.0031,0.02429 1.25,1.25 0 0 0 -0.0088,0.06925 1.25,1.25 0 0 0 -10e-4,0.07286 1.25,1.25 0 0 0 -5.16e-4,0.0098 1.25,1.25 0 0 0 5.16e-4,0.0093 1.25,1.25 0 0 0 10e-4,0.0739 1.25,1.25 0 0 0 0.0088,0.0708 1.25,1.25 0 0 0 5.17e-4,0.0047 1.25,1.25 0 0 0 0.0021,0.01447 1.25,1.25 0 0 0 0.01034,0.07235 1.25,1.25 0 0 0 0.01757,0.06976 1.25,1.25 0 0 0 0.0015,0.0052 1.25,1.25 0 0 0 0.0021,0.0078 1.25,1.25 0 0 0 0.0217,0.07648 1.25,1.25 0 0 0 0.02687,0.0677 1.25,1.25 0 0 0 0.0026,0.0057 1.25,1.25 0 0 0 0.03204,0.07493 1.25,1.25 0 0 0 0.03824,0.06873 1.25,1.25 0 0 0 0.0021,0.0031 1.25,1.25 0 0 0 0.04289,0.07131 1.25,1.25 0 0 0 0.04134,0.05529 1.25,1.25 0 0 0 0.0015,0.0021 1.25,1.25 0 0 0 0.01395,0.01809 1.25,1.25 0 0 0 0.04237,0.05374 1.25,1.25 0 0 0 0.01033,0.01292 1.25,1.25 0 0 0 0.04599,0.04547 1.25,1.25 0 0 0 0.04392,0.04444 1.25,1.25 0 0 0 0.0036,0.0036 l 7.087939,6.40426 a 1.25,1.25 0 0 0 1.765784,-0.0894 1.25,1.25 0 0 0 -0.08992,-1.765784 l -4.681365,-4.230749 h 9.615434 a 1.25,1.25 0 0 0 1.249536,-1.250053 1.25,1.25 0 0 0 -1.249536,-1.250053 h -9.615951 l 4.681885,-4.2323 a 1.25,1.25 0 0 0 0.08992,-1.765267 1.25,1.25 0 0 0 -0.864547,-0.409794 z" />
    <path
       id="path1-7-3"
       style="baseline-shift:baseline;display:inline;overflow:visible;vector-effect:none;fill:#ffffff;stroke-linecap:round;stroke-linejoin:round;paint-order:stroke markers fill;enable-background:accumulate;stop-color:#000000"
       d="m 122.38822,28.781835 a 1.25,1.25 0 0 0 0.32194,0.901237 l 6.40788,7.091557 a 1.25,1.25 0 0 0 0.0346,0.03411 1.25,1.25 0 0 0 0.0202,0.02015 1.25,1.25 0 0 0 0.0351,0.03566 1.25,1.25 0 0 0 0.0129,0.01033 1.25,1.25 0 0 0 0.0439,0.03462 1.25,1.25 0 0 0 0.0382,0.02946 1.25,1.25 0 0 0 0.047,0.03514 1.25,1.25 0 0 0 0.063,0.03824 1.25,1.25 0 0 0 0.0109,0.0067 1.25,1.25 0 0 0 5.2e-4,0 1.25,1.25 0 0 0 0.0693,0.03824 1.25,1.25 0 0 0 0.0672,0.02894 1.25,1.25 0 0 0 0.008,0.0036 1.25,1.25 0 0 0 0.003,0.001 1.25,1.25 0 0 0 0.0708,0.02842 1.25,1.25 0 0 0 0.0708,0.02015 1.25,1.25 0 0 0 0.0145,0.0036 1.25,1.25 0 0 0 0.001,5.16e-4 1.25,1.25 0 0 0 0.0713,0.01809 1.25,1.25 0 0 0 0.0687,0.0098 1.25,1.25 0 0 0 0.0243,0.0031 1.25,1.25 0 0 0 0.0692,0.0088 1.25,1.25 0 0 0 0.0729,10e-4 1.25,1.25 0 0 0 0.01,5.16e-4 1.25,1.25 0 0 0 0.009,-5.16e-4 1.25,1.25 0 0 0 0.0739,-10e-4 1.25,1.25 0 0 0 0.0708,-0.0088 1.25,1.25 0 0 0 0.005,-5.17e-4 1.25,1.25 0 0 0 0.0145,-0.0021 1.25,1.25 0 0 0 0.0724,-0.01034 1.25,1.25 0 0 0 0.0698,-0.01757 1.25,1.25 0 0 0 0.005,-0.0015 1.25,1.25 0 0 0 0.008,-0.0021 1.25,1.25 0 0 0 0.0765,-0.0217 1.25,1.25 0 0 0 0.0677,-0.02687 1.25,1.25 0 0 0 0.006,-0.0026 1.25,1.25 0 0 0 0.0749,-0.03204 1.25,1.25 0 0 0 0.0687,-0.03824 1.25,1.25 0 0 0 0.003,-0.0021 1.25,1.25 0 0 0 0.0713,-0.04289 1.25,1.25 0 0 0 0.0553,-0.04134 1.25,1.25 0 0 0 0.002,-0.0015 1.25,1.25 0 0 0 0.0181,-0.01395 1.25,1.25 0 0 0 0.0537,-0.04237 1.25,1.25 0 0 0 0.0129,-0.01033 1.25,1.25 0 0 0 0.0455,-0.04599 1.25,1.25 0 0 0 0.0444,-0.04392 1.25,1.25 0 0 0 0.004,-0.0036 l 6.40426,-7.087939 a 1.25,1.25 0 0 0 -0.0894,-1.765784 1.25,1.25 0 0 0 -1.76579,0.08992 l -4.23075,4.681365 v -9.615434 a 1.25,1.25 0 0 0 -1.25005,-1.249536 1.25,1.25 0 0 0 -1.25005,1.249536 v 9.615951 l -4.2323,-4.681885 a 1.25,1.25 0 0 0 -1.76527,-0.08992 1.25,1.25 0 0 0 -0.40979,0.864547 z" />
    <path
       id="path1-7-3-3"
       style="baseline-shift:baseline;display:inline;overflow:visible;vector-effect:none;fill:#ffffff;stroke-linecap:round;stroke-linejoin:round;paint-order:stroke markers fill;enable-background:accumulate;stop-color:#000000"
       d="m 122.38835,76.781835 a 1.25,1.25 0 0 0 0.32194,0.901237 l 6.40788,7.091557 a 1.25,1.25 0 0 0 0.0346,0.03411 1.25,1.25 0 0 0 0.0202,0.02015 1.25,1.25 0 0 0 0.0351,0.03566 1.25,1.25 0 0 0 0.0129,0.01033 1.25,1.25 0 0 0 0.0439,0.03462 1.25,1.25 0 0 0 0.0382,0.02946 1.25,1.25 0 0 0 0.047,0.03514 1.25,1.25 0 0 0 0.063,0.03824 1.25,1.25 0 0 0 0.0109,0.0067 1.25,1.25 0 0 0 5.2e-4,0 1.25,1.25 0 0 0 0.0693,0.03824 1.25,1.25 0 0 0 0.0672,0.02894 1.25,1.25 0 0 0 0.008,0.0036 1.25,1.25 0 0 0 0.003,10e-4 1.25,1.25 0 0 0 0.0708,0.02842 1.25,1.25 0 0 0 0.0708,0.02015 1.25,1.25 0 0 0 0.0145,0.0036 1.25,1.25 0 0 0 0.001,5.16e-4 1.25,1.25 0 0 0 0.0713,0.01809 1.25,1.25 0 0 0 0.0687,0.0098 1.25,1.25 0 0 0 0.0243,0.0031 1.25,1.25 0 0 0 0.0692,0.0088 1.25,1.25 0 0 0 0.0729,0.001 1.25,1.25 0 0 0 0.01,5.16e-4 1.25,1.25 0 0 0 0.009,-5.16e-4 1.25,1.25 0 0 0 0.0739,-0.001 1.25,1.25 0 0 0 0.0708,-0.0088 1.25,1.25 0 0 0 0.005,-5.17e-4 1.25,1.25 0 0 0 0.0145,-0.0021 1.25,1.25 0 0 0 0.0724,-0.01034 1.25,1.25 0 0 0 0.0698,-0.01757 1.25,1.25 0 0 0 0.005,-0.0015 1.25,1.25 0 0 0 0.008,-0.0021 1.25,1.25 0 0 0 0.0765,-0.0217 1.25,1.25 0 0 0 0.0677,-0.02687 1.25,1.25 0 0 0 0.006,-0.0026 1.25,1.25 0 0 0 0.0749,-0.03204 1.25,1.25 0 0 0 0.0687,-0.03824 1.25,1.25 0 0 0 0.003,-0.0021 1.25,1.25 0 0 0 0.0713,-0.04289 1.25,1.25 0 0 0 0.0553,-0.04134 1.25,1.25 0 0 0 0.002,-0.0015 1.25,1.25 0 0 0 0.0181,-0.01395 1.25,1.25 0 0 0 0.0537,-0.04237 1.25,1.25 0 0 0 0.0129,-0.01033 1.25,1.25 0 0 0 0.0455,-0.04599 1.25,1.25 0 0 0 0.0444,-0.04392 1.25,1.25 0 0 0 0.004,-0.0036 l 6.40426,-7.087939 a 1.25,1.25 0 0 0 -0.0894,-1.765784 1.25,1.25 0 0 0 -1.76579,0.08992 l -4.23075,4.681365 v -9.615434 a 1.25,1.25 0 0 0 -1.25005,-1.249536 1.25,1.25 0 0 0 -1.25005,1.249536 v 9.615951 l -4.2323,-4.681885 a 1.25,1.25 0 0 0 -1.76527,-0.08992 1.25,1.25 0 0 0 -0.40979,0.864547 z" />
    <path
       id="path1-7-3-8"
       style="baseline-shift:baseline;display:inline;overflow:visible;vector-effect:none;fill:#ffffff;stroke-linecap:round;stroke-linejoin:round;paint-order:stroke markers fill;enable-background:accumulate;stop-color:#000000"
       d="m 179.06516,37.161636 a 1.25,1.25 0 0 0 0.90124,-0.32194 l 7.09155,-6.40788 a 1.25,1.25 0 0 0 0.0341,-0.0346 1.25,1.25 0 0 0 0.0202,-0.0202 1.25,1.25 0 0 0 0.0357,-0.0351 1.25,1.25 0 0 0 0.0103,-0.0129 1.25,1.25 0 0 0 0.0346,-0.0439 1.25,1.25 0 0 0 0.0295,-0.0382 1.25,1.25 0 0 0 0.0351,-0.047 1.25,1.25 0 0 0 0.0382,-0.063 1.25,1.25 0 0 0 0.007,-0.0109 1.25,1.25 0 0 0 0,-5.2e-4 1.25,1.25 0 0 0 0.0382,-0.0693 1.25,1.25 0 0 0 0.0289,-0.0672 1.25,1.25 0 0 0 0.004,-0.008 1.25,1.25 0 0 0 0.001,-0.003 1.25,1.25 0 0 0 0.0284,-0.0708 1.25,1.25 0 0 0 0.0202,-0.0708 1.25,1.25 0 0 0 0.004,-0.0145 1.25,1.25 0 0 0 5.2e-4,-10e-4 1.25,1.25 0 0 0 0.0181,-0.0713 1.25,1.25 0 0 0 0.01,-0.0687 1.25,1.25 0 0 0 0.003,-0.0243 1.25,1.25 0 0 0 0.009,-0.0692 1.25,1.25 0 0 0 0.001,-0.0729 1.25,1.25 0 0 0 5.2e-4,-0.01 1.25,1.25 0 0 0 -5.2e-4,-0.009 1.25,1.25 0 0 0 -0.001,-0.0739 1.25,1.25 0 0 0 -0.009,-0.0708 1.25,1.25 0 0 0 -5.2e-4,-0.005 1.25,1.25 0 0 0 -0.002,-0.0145 1.25,1.25 0 0 0 -0.0103,-0.0724 1.25,1.25 0 0 0 -0.0176,-0.0698 1.25,1.25 0 0 0 -0.001,-0.005 1.25,1.25 0 0 0 -0.002,-0.008 1.25,1.25 0 0 0 -0.0217,-0.0765 1.25,1.25 0 0 0 -0.0269,-0.0677 1.25,1.25 0 0 0 -0.003,-0.006 1.25,1.25 0 0 0 -0.032,-0.0749 1.25,1.25 0 0 0 -0.0382,-0.0687 1.25,1.25 0 0 0 -0.002,-0.003 1.25,1.25 0 0 0 -0.0429,-0.0713 1.25,1.25 0 0 0 -0.0413,-0.0553 1.25,1.25 0 0 0 -0.002,-0.002 1.25,1.25 0 0 0 -0.0139,-0.0181 1.25,1.25 0 0 0 -0.0424,-0.0537 1.25,1.25 0 0 0 -0.0103,-0.0129 1.25,1.25 0 0 0 -0.046,-0.0455 1.25,1.25 0 0 0 -0.0439,-0.0444 1.25,1.25 0 0 0 -0.004,-0.004 l -7.08794,-6.40426 a 1.25,1.25 0 0 0 -1.76578,0.0894 1.25,1.25 0 0 0 0.0899,1.76579 l 4.68136,4.23075 h -9.61543 a 1.25,1.25 0 0 0 -1.24954,1.25005 1.25,1.25 0 0 0 1.24954,1.25005 h 9.61595 l -4.68188,4.2323 a 1.25,1.25 0 0 0 -0.0899,1.76527 1.25,1.25 0 0 0 0.86454,0.40979 z" />
    <path
       id="path1-7-3-8-3"
       style="baseline-shift:baseline;display:inline;overflow:visible;vector-effect:none;fill:#ffffff;stroke-linecap:round;stroke-linejoin:round;paint-order:stroke markers fill;enable-background:accumulate;stop-color:#000000"
       d="m 179.0641,85.161635 a 1.25,1.25 0 0 0 0.90124,-0.32194 l 7.09155,-6.40788 a 1.25,1.25 0 0 0 0.0341,-0.0346 1.25,1.25 0 0 0 0.0202,-0.0202 1.25,1.25 0 0 0 0.0357,-0.0351 1.25,1.25 0 0 0 0.0103,-0.0129 1.25,1.25 0 0 0 0.0346,-0.0439 1.25,1.25 0 0 0 0.0295,-0.0382 1.25,1.25 0 0 0 0.0351,-0.047 1.25,1.25 0 0 0 0.0382,-0.063 1.25,1.25 0 0 0 0.007,-0.0109 1.25,1.25 0 0 0 0,-5.2e-4 1.25,1.25 0 0 0 0.0382,-0.0693 1.25,1.25 0 0 0 0.0289,-0.0672 1.25,1.25 0 0 0 0.004,-0.008 1.25,1.25 0 0 0 0.001,-0.003 1.25,1.25 0 0 0 0.0284,-0.0708 1.25,1.25 0 0 0 0.0202,-0.0708 1.25,1.25 0 0 0 0.004,-0.0145 1.25,1.25 0 0 0 5.2e-4,-0.001 1.25,1.25 0 0 0 0.0181,-0.0713 1.25,1.25 0 0 0 0.01,-0.0687 1.25,1.25 0 0 0 0.003,-0.0243 1.25,1.25 0 0 0 0.009,-0.0692 1.25,1.25 0 0 0 10e-4,-0.0729 1.25,1.25 0 0 0 5.2e-4,-0.01 1.25,1.25 0 0 0 -5.2e-4,-0.009 1.25,1.25 0 0 0 -10e-4,-0.0739 1.25,1.25 0 0 0 -0.009,-0.0708 1.25,1.25 0 0 0 -5.2e-4,-0.005 1.25,1.25 0 0 0 -0.002,-0.0145 1.25,1.25 0 0 0 -0.0103,-0.0724 1.25,1.25 0 0 0 -0.0176,-0.0698 1.25,1.25 0 0 0 -0.001,-0.005 1.25,1.25 0 0 0 -0.002,-0.008 1.25,1.25 0 0 0 -0.0217,-0.0765 1.25,1.25 0 0 0 -0.0269,-0.0677 1.25,1.25 0 0 0 -0.003,-0.006 1.25,1.25 0 0 0 -0.032,-0.0749 1.25,1.25 0 0 0 -0.0382,-0.0687 1.25,1.25 0 0 0 -0.002,-0.003 1.25,1.25 0 0 0 -0.0429,-0.0713 1.25,1.25 0 0 0 -0.0413,-0.0553 1.25,1.25 0 0 0 -0.002,-0.002 1.25,1.25 0 0 0 -0.0139,-0.0181 1.25,1.25 0 0 0 -0.0424,-0.0537 1.25,1.25 0 0 0 -0.0103,-0.0129 1.25,1.25 0 0 0 -0.046,-0.0455 1.25,1.25 0 0 0 -0.0439,-0.0444 1.25,1.25 0 0 0 -0.004,-0.004 l -7.08794,-6.40426 a 1.25,1.25 0 0 0 -1.76578,0.0894 1.25,1.25 0 0 0 0.0899,1.76579 l 4.68136,4.23075 h -9.61543 a 1.25,1.25 0 0 0 -1.24954,1.25005 1.25,1.25 0 0 0 1.24954,1.25005 h 9.61595 l -4.68188,4.2323 a 1.25,1.25 0 0 0 -0.0899,1.76527 1.25,1.25 0 0 0 0.86454,0.40979 z" />
  </g>
</svg>
